# xmcd CD database file
#
# Track frame offsets:
#	150
#	12513
#	50892
#	64683
#	79081
#	90855
#	108102
#	119900
#	135875
#	152828
#	164695
#	181743
#	196970
#	212042
#	228150
#
# Disc length: 3184 seconds
#
# Revision: 0
# Processed by: cddbd v1.5.2PL0 Copyright (c) Steve Scherf et al.
# Submitted via: CDex 1.51
#
DISCID=c30c6e0f
DTITLE=Johnny Cash and Willie Nelson - Every Song Tells A Story
DYEAR=1900
DGENRE=Blues
TTITLE0=Folsom Prison Blues [Live Version]
TTITLE1=Medley: Funny How Time Slips Away/Crazy/Night Life
TTITLE2=Don't Take Your Guns To Town
TTITLE3=Family Bible
TTITLE4=I Still Miss Someone
TTITLE5=Me And Paul
TTITLE6=Flesh And Blood
TTITLE7=Always On My Mind
TTITLE8=(Ghost) Riders In The Sky
TTITLE9=On The Road Again
TTITLE10=Deportee (Plane Wreck at Los Gatos)
TTITLE11=Jim, I Wore A Tie Today
TTITLE12=Committed To Parkview
TTITLE13=The Twentieth Century Is Almost Over
TTITLE14=The Human Condition [Single Version]
EXTD=
EXTT0=
EXTT1=
EXTT2=
EXTT3=
EXTT4=
EXTT5=
EXTT6=
EXTT7=
EXTT8=
EXTT9=
EXTT10=
EXTT11=
EXTT12=
EXTT13=
EXTT14=
PLAYORDER=
